# xmcd CD database file
#
# Track frame offsets:
#	150
#	48390
#	89697
#	122285
#	158155
#
# Disc length: 2534 seconds
#
# Revision: 10
# Processed by: cddbd v1.5.2PL0 Copyright (c) Steve Scherf et al.
# Submitted via: CDex 1.70beta2
#
DISCID=3609e405
DTITLE=John Coltrane - Blue Train
DYEAR=1957
DGENRE=Jazz
TTITLE0=Blue Train
TTITLE1=Moment's Notice
TTITLE2=Locomotion
TTITLE3=I'm Old Fashioned
TTITLE4=Lazy Bird
EXTD=Lee Morgan: Trumpet\nCurtis Fuller: Trombone\nJohn Coltrane: Tenor Sax\nKenny Drew: Piano\nPaul Chambers: Bass\nPhilly Joe Jones: Drums\n\nReedition with original liner notes YEAR: 1957
EXTT0=
EXTT1=
EXTT2=
EXTT3=
EXTT4=
PLAYORDER=
